<?xml version="1.0" encoding="UTF-8"?>
<svg id="Ebene_2" data-name="Ebene 2" xmlns="http://www.w3.org/2000/svg" viewBox="0 0 354.89 53.48">
  <defs>
    <style>
      .cls-1 {
        fill: #f6f5f2;
      }
    </style>
  </defs>
  <g id="Ebene_1-2" data-name="Ebene 1">
    <g>
      <path class="cls-1" d="M16.38,53.06c-1.73,0-3.5-.19-5.32-.56-1.82-.37-3.5-1.02-5.04-1.93-1.54-.91-2.85-2.15-3.92-3.71-1.07-1.56-1.77-3.51-2.1-5.84h9.94c.28.84.78,1.56,1.51,2.17.72.61,1.56,1.05,2.52,1.33.96.28,1.93.42,2.9.42.65,0,1.31-.05,1.96-.14.65-.09,1.26-.28,1.82-.56s1-.64,1.33-1.08c.33-.44.49-1.01.49-1.71,0-.75-.23-1.33-.7-1.75s-1.12-.76-1.96-1.01c-.84-.26-1.8-.5-2.87-.74-1.91-.42-3.97-.89-6.16-1.4s-4.08-1.26-5.67-2.24c-.65-.47-1.24-.98-1.75-1.54-.51-.56-.93-1.19-1.26-1.89-.33-.7-.58-1.43-.77-2.2-.19-.77-.28-1.6-.28-2.49,0-2.01.43-3.72,1.29-5.15.86-1.42,2.02-2.58,3.46-3.46,1.45-.89,3.05-1.53,4.83-1.92,1.77-.4,3.59-.59,5.46-.59,2.52,0,4.85.41,7,1.22,2.15.82,3.92,2.08,5.32,3.78,1.4,1.7,2.26,3.91,2.59,6.62h-9.38c-.19-1.03-.82-1.86-1.89-2.49-1.07-.63-2.4-.95-3.99-.95-.56,0-1.15.05-1.79.14s-1.2.26-1.71.49c-.51.23-.93.55-1.26.95-.33.4-.49.92-.49,1.58,0,.51.15.98.46,1.4.3.42.75.77,1.33,1.05.58.28,1.29.54,2.13.77,1.59.37,3.19.71,4.79,1.02s3.04.62,4.3.94c1.54.33,2.95.86,4.23,1.61,1.28.75,2.33,1.76,3.15,3.04.82,1.28,1.22,2.95,1.22,5,0,2.33-.47,4.26-1.4,5.78-.94,1.52-2.18,2.72-3.75,3.6-1.56.89-3.27,1.52-5.11,1.89-1.84.37-3.68.56-5.5.56Z"/>
      <path class="cls-1" d="M36.47,52.57V3.01h9.8v16.94c1.07-1.26,2.27-2.24,3.6-2.94s2.68-1.2,4.06-1.5,2.65-.46,3.81-.46c3.45,0,6.16.77,8.12,2.31,1.96,1.54,3.36,3.62,4.2,6.23.84,2.61,1.26,5.48,1.26,8.61v20.37h-9.8v-18.97c0-1.12-.11-2.24-.32-3.36-.21-1.12-.57-2.16-1.08-3.11-.51-.96-1.24-1.73-2.17-2.31-.93-.58-2.17-.88-3.71-.88-1.45,0-2.68.3-3.71.91-1.03.61-1.86,1.41-2.49,2.42-.63,1-1.08,2.11-1.36,3.33-.28,1.21-.42,2.43-.42,3.64v18.34h-9.8Z"/>
      <path class="cls-1" d="M82.32,11.97c-1.82,0-3.29-.55-4.41-1.65-1.12-1.1-1.68-2.51-1.68-4.23,0-1.82.58-3.29,1.75-4.41s2.64-1.68,4.41-1.68c1.63,0,3.04.55,4.23,1.64,1.19,1.1,1.79,2.55,1.79,4.38s-.57,3.21-1.71,4.3c-1.14,1.1-2.6,1.65-4.38,1.65ZM77.42,52.57V15.68h9.8v36.89h-9.8Z"/>
      <path class="cls-1" d="M96.67,52.57v-28.14h-5.53v-8.75h5.53v-3.36c0-2.8.46-5.1,1.37-6.89.91-1.8,2.31-3.12,4.2-3.96,1.89-.84,4.3-1.26,7.25-1.26h6.09v8.68h-4.83c-1.07,0-1.93.16-2.55.49-.63.33-1.06.83-1.29,1.5-.23.68-.35,1.5-.35,2.48v2.31h9.03v8.75h-9.03v28.14h-9.87Z"/>
      <path class="cls-1" d="M138.6,52.57c-3.08,0-5.66-.37-7.74-1.12-2.08-.75-3.64-2.02-4.69-3.81-1.05-1.8-1.57-4.26-1.57-7.38v-15.82h-5.46v-8.75h5.46V5.81h9.8v9.87h8.05v8.75h-8.05v14.42c0,1.54.28,2.75.84,3.64.56.89,1.82,1.33,3.78,1.33h3.08v8.75h-3.5Z"/>
      <path class="cls-1" d="M154.91,53.48c-1.68,0-3.1-.51-4.27-1.54-1.17-1.03-1.75-2.5-1.75-4.41s.6-3.5,1.79-4.62c1.19-1.12,2.6-1.68,4.23-1.68s3.03.55,4.2,1.65c1.17,1.1,1.75,2.62,1.75,4.58s-.58,3.45-1.75,4.48c-1.17,1.03-2.57,1.54-4.2,1.54Z"/>
      <path class="cls-1" d="M167.16,52.57V15.68h8.82l.84,4.13c.93-1.31,1.97-2.3,3.12-2.97,1.14-.68,2.3-1.13,3.46-1.37,1.17-.23,2.24-.35,3.22-.35,2.19,0,4.13.42,5.81,1.26s3.03,2.19,4.06,4.06c.98-1.35,2.05-2.42,3.22-3.18,1.17-.77,2.4-1.32,3.71-1.65,1.31-.33,2.64-.49,3.99-.49,2.85,0,5.14.6,6.89,1.79,1.75,1.19,3.03,2.83,3.85,4.94.82,2.1,1.23,4.55,1.23,7.35v23.38h-9.8v-20.79c0-.84-.05-1.7-.14-2.59-.09-.89-.31-1.73-.66-2.52-.35-.79-.87-1.45-1.54-1.96s-1.62-.77-2.83-.77-2.15.26-2.94.77c-.79.51-1.43,1.2-1.89,2.06-.47.86-.8,1.8-1.02,2.8-.21,1-.31,2.02-.31,3.04v19.95h-9.8v-20.86c0-.79-.05-1.63-.14-2.52-.1-.89-.3-1.73-.63-2.52-.33-.79-.85-1.45-1.57-1.96-.72-.51-1.71-.77-2.98-.77-1.73,0-3.04.5-3.95,1.5-.91,1-1.51,2.19-1.79,3.57-.28,1.38-.42,2.65-.42,3.81v19.74h-9.8Z"/>
      <path class="cls-1" d="M242.27,53.06c-3.88,0-7.16-.77-9.87-2.31s-4.78-3.72-6.23-6.55c-1.45-2.82-2.17-6.12-2.17-9.9s.75-7.17,2.24-10.04c1.49-2.87,3.6-5.12,6.33-6.75s5.96-2.45,9.7-2.45c2.8,0,5.26.47,7.38,1.4,2.12.93,3.92,2.24,5.39,3.92,1.47,1.68,2.56,3.63,3.29,5.85.72,2.22,1.06,4.61,1.02,7.17,0,.65-.02,1.28-.07,1.89-.05.61-.14,1.21-.28,1.82h-25.27c.14,1.4.54,2.68,1.19,3.85.65,1.17,1.57,2.09,2.76,2.77,1.19.68,2.67,1.01,4.45,1.01,1.17,0,2.24-.13,3.22-.38.98-.26,1.82-.67,2.52-1.23.7-.56,1.19-1.21,1.47-1.96h9.66c-.61,2.75-1.74,5.02-3.4,6.79-1.66,1.77-3.65,3.07-5.98,3.89-2.33.82-4.78,1.22-7.35,1.22ZM233.94,30.24h16.03c-.05-1.26-.36-2.44-.95-3.54-.58-1.1-1.45-1.98-2.59-2.66-1.14-.68-2.6-1.02-4.38-1.02s-3.25.35-4.44,1.05c-1.19.7-2.08,1.6-2.66,2.7-.58,1.1-.92,2.25-1.02,3.46Z"/>
      <path class="cls-1" d="M279.44,53.06c-3.73,0-6.83-.85-9.28-2.55-2.45-1.7-4.28-3.99-5.5-6.86-1.21-2.87-1.82-6.05-1.82-9.55,0-3.69.65-6.96,1.96-9.83s3.24-5.12,5.81-6.75,5.76-2.45,9.59-2.45c1.31,0,2.6.15,3.88.46s2.47.75,3.57,1.33c1.1.58,2.04,1.34,2.83,2.27V3.01h9.8v49.56h-9.52l-.14-4.13c-.84,1.07-1.86,1.95-3.04,2.62-1.19.68-2.46,1.18-3.81,1.5s-2.8.49-4.34.49ZM281.39,44.24c2.1,0,3.82-.49,5.14-1.47,1.33-.98,2.32-2.24,2.98-3.78.65-1.54.98-3.2.98-4.97s-.31-3.49-.94-5c-.63-1.52-1.61-2.73-2.94-3.64-1.33-.91-3.07-1.37-5.21-1.37s-3.87.49-5.18,1.47c-1.31.98-2.23,2.25-2.77,3.82s-.8,3.23-.8,5c0,1.31.15,2.55.46,3.75.3,1.19.8,2.25,1.51,3.18.7.93,1.61,1.67,2.73,2.21,1.12.54,2.47.8,4.06.8Z"/>
      <path class="cls-1" d="M311.5,11.97c-1.82,0-3.29-.55-4.41-1.65-1.12-1.1-1.68-2.51-1.68-4.23,0-1.82.58-3.29,1.75-4.41,1.17-1.12,2.63-1.68,4.41-1.68,1.63,0,3.04.55,4.23,1.64,1.19,1.1,1.79,2.55,1.79,4.38s-.57,3.21-1.71,4.3c-1.14,1.1-2.6,1.65-4.38,1.65ZM306.6,52.57V15.68h9.8v36.89h-9.8Z"/>
      <path class="cls-1" d="M334.46,53.06c-1.68,0-3.3-.22-4.87-.67-1.56-.44-2.95-1.13-4.17-2.07-1.21-.93-2.17-2.1-2.87-3.5-.7-1.4-1.05-3.03-1.05-4.9,0-2.52.51-4.54,1.54-6.05,1.03-1.52,2.4-2.67,4.13-3.47,1.73-.79,3.72-1.33,5.99-1.61,2.26-.28,4.61-.42,7.04-.42h5.32c0-1.35-.24-2.56-.73-3.61s-1.22-1.87-2.21-2.45c-.98-.58-2.24-.88-3.78-.88-.98,0-1.93.13-2.84.39-.91.26-1.67.62-2.28,1.08-.61.47-1,1.07-1.19,1.82h-9.94c.28-2.05.93-3.81,1.96-5.29,1.03-1.47,2.31-2.67,3.85-3.6,1.54-.93,3.23-1.62,5.07-2.07,1.84-.44,3.74-.67,5.71-.67,5.37,0,9.33,1.53,11.9,4.58,2.57,3.06,3.85,7.39,3.85,12.99v19.88h-8.82l-.14-4.76c-1.17,1.63-2.48,2.82-3.95,3.57-1.47.75-2.88,1.21-4.24,1.4s-2.45.28-3.29.28ZM336.7,45.29c1.63,0,3.12-.33,4.48-.98,1.35-.65,2.43-1.54,3.22-2.66.79-1.12,1.19-2.38,1.19-3.78v-.91h-6.72c-.98,0-1.93.05-2.84.14-.91.09-1.73.27-2.45.53-.72.26-1.29.67-1.71,1.22s-.63,1.31-.63,2.24.25,1.71.73,2.34c.49.63,1.16,1.1,2,1.4s1.75.46,2.73.46Z"/>
    </g>
  </g>
</svg>